<svg width="175" height="187" viewBox="0 0 175 187" fill="none" xmlns="http://www.w3.org/2000/svg">
    <rect width="175" height="184" fill="black"/>
    <path fill-rule="evenodd" clip-rule="evenodd" d="M114.349 25.5756C119.744 19.8102 128.315 19.5068 134.045 24.6653L134.972 25.5756L140.128 31.0851C145.523 36.8505 145.807 46.0095 140.98 52.1321L140.128 53.1233L134.972 58.6328C134.521 59.1147 134.048 59.5585 133.556 59.964C134.81 64.797 133.844 70.1497 130.659 74.1819L129.816 75.1614L122.594 82.8791C132.367 92.148 138.542 105.688 138.542 120.771C138.542 133.578 134.093 145.276 126.756 154.194L125.347 155.833H145.833C149.861 155.833 153.125 159.322 153.125 163.625C153.125 167.621 150.31 170.914 146.684 171.364L145.833 171.417H29.1667C25.1396 171.417 21.875 167.928 21.875 163.625C21.875 159.629 24.6899 156.336 28.3163 155.886L29.1667 155.833H91.1458C109.268 155.833 123.958 140.135 123.958 120.771C123.958 110.676 119.971 101.576 113.568 95.1708L112.256 93.9261L88.5682 119.238C83.1732 125.003 74.6015 125.307 68.872 120.148L67.9444 119.238L52.4764 102.709C47.081 96.9439 46.7971 87.7851 51.6245 81.6622L52.4764 80.6709L93.7242 36.5947C97.5763 32.4786 103.047 31.1465 107.947 32.5982L108.542 31.8253L109.192 31.0851L114.349 25.5756ZM47.3205 108.218L62.7885 124.748C65.636 127.79 65.636 132.724 62.7885 135.767C59.9409 138.809 55.3241 138.809 52.4764 135.767L37.0085 119.238C34.1609 116.195 34.1609 111.262 37.0085 108.218C39.8561 105.176 44.4729 105.176 47.3205 108.218ZM104.036 47.6138L62.7885 91.6899L78.2564 108.218L119.505 64.1424L104.036 47.6138ZM124.661 36.5947L119.505 42.1042L124.661 47.6138L129.816 42.1042L124.661 36.5947Z" fill="white"/>
    </svg>
    