<?xml version="1.0" encoding="utf-8"?><!-- Uploaded to: SVG Repo, www.svgrepo.com, Generator: SVG Repo Mixer Tools -->
<svg width="800px" height="800px" viewBox="0 0 366.34 366.34" id="Layer_1" data-name="Layer 1" xmlns="http://www.w3.org/2000/svg" xmlns:xlink="http://www.w3.org/1999/xlink"><defs><style>.cls-1{fill:url(#linear-gradient);}.cls-2{fill:#e18477;}.cls-3{fill:#a76962;}.cls-4{fill:#f2d4cf;}.cls-5{fill:url(#linear-gradient-2);}.cls-6{fill:none;stroke:#00214e;stroke-miterlimit:10;}.cls-7{fill:#00214e;}</style><linearGradient id="linear-gradient" x1="69.46" y1="135.08" x2="265.13" y2="135.08" gradientUnits="userSpaceOnUse"><stop offset="0" stop-color="#315676"/><stop offset="1" stop-color="#e1b9e0"/></linearGradient><linearGradient id="linear-gradient-2" x1="52.67" y1="156.37" x2="257.22" y2="40.38" gradientUnits="userSpaceOnUse"><stop offset="0" stop-color="#315676"/><stop offset="0.08" stop-color="#375979"/><stop offset="0.18" stop-color="#496383"/><stop offset="0.2" stop-color="#4d6585"/><stop offset="0.29" stop-color="#546989"/><stop offset="0.43" stop-color="#677495"/><stop offset="0.6" stop-color="#8786a9"/><stop offset="0.78" stop-color="#b39fc4"/><stop offset="0.95" stop-color="#e1b9e0"/></linearGradient></defs><title>Artboards_Diversity_Avatars_by_Netguru</title><path class="cls-1" d="M69.46,224.32s19-105.26,27.23-125.44c12.82-31.53,43.39-50.33,76.92-53,24.51-1.94,47.64,8.38,60.25,29.37,16.1,26.81,31.27,149.22,31.27,149.22Z"/><path class="cls-2" d="M296.88,282.36a184.56,184.56,0,0,1-226.48-1l48.66-22.81a47.68,47.68,0,0,0,4.35-2.34l1.12-.7c.4-.25.79-.51,1.18-.78a46.54,46.54,0,0,0,14.67-16.47c4-7.55,5.32-15.89,5.38-24.39,0-5.72-.31-11.44-.37-17.17q-.06-4.75-.1-9.51h0l2,1,5.2,2.69L182.76,196l31.12,5.3.7,23.8.24,8.17.47,15.87,11.47,4.67,9,3.64Z"/><path class="cls-3" d="M214.58,225.14c-2.67,1.63-5.19,2.39-7.4,2.15-14.79-1.59-43.64-13.18-61.8-34.63q0-1.57-.06-3.15c0-.78,0-1.55,0-2.33l2,1,5.2,2.69L182.76,196l31.12,5.3Z"/><path class="cls-4" d="M296.89,282.36a184.56,184.56,0,0,1-226.48-1l48.66-22.81a47.68,47.68,0,0,0,4.35-2.34c23.68,17.41,56.64,28.75,85.06,16,8.06-3.62,15.33-10.05,18.29-18.31l9,3.64Z"/><circle class="cls-2" cx="118.62" cy="153.9" r="17"/><circle class="cls-3" cx="124.62" cy="151.9" r="17"/><path class="cls-2" d="M234.15,128.16C245.9,168.84,221,218,205.62,218c-21,0-72-16.78-83.74-57.46s3.87-80.92,34.87-89.87S222.41,87.47,234.15,128.16Z"/><path class="cls-5" d="M199.29,78.62a32.79,32.79,0,0,1-1.66,5.56c-7.52,18.57-19.12,34.58-36,45.7-20,13.16-39.6,12.58-62,15.8,1.27-8.18,4.14-16,4.39-24.57.4-13.42,3.43-18.54,11.89-28.34,6.3-7.29,14.83-18.43,24.73-20.87.17,0,58-23,58-23C199.28,58.89,201.24,69.12,199.29,78.62Z"/><path class="cls-6" d="M207,121.54a31.13,31.13,0,0,1,22.85-2.15"/><path class="cls-6" d="M154.53,124.44a36.75,36.75,0,0,1,31.23-1"/><path class="cls-6" d="M204.21,148.5s.29,5.66,1.61,8.31c.58,1.14,1.46,2.1,2,3.23,2.22,4.34-1.36,5.25-4.81,5.25"/><path class="cls-6" d="M190.28,158.38a3.4,3.4,0,0,0,2.11,6.38"/><path class="cls-6" d="M174.38,177.51a29.78,29.78,0,0,0,18.54,9.69"/><ellipse class="cls-7" cx="171.02" cy="138.97" rx="3.27" ry="7.94" transform="translate(19.8 299.26) rotate(-85.77)"/><ellipse class="cls-7" cx="222.52" cy="137.33" rx="7.94" ry="3.27" transform="translate(-18.5 35.92) rotate(-8.86)"/></svg>