<svg width="126" height="33" viewBox="0 0 126 33" fill="none" xmlns="http://www.w3.org/2000/svg">
    <path d="M15.7311 15.5102C15.6856 15.0519 15.4905 14.6958 15.1458 14.442C14.8011 14.1882 14.3333 14.0614 13.7424 14.0614C13.3409 14.0614 13.0019 14.1182 12.7254 14.2318C12.4489 14.3417 12.2367 14.4951 12.089 14.692C11.9451 14.889 11.8731 15.1125 11.8731 15.3625C11.8655 15.5708 11.9091 15.7526 12.0038 15.9079C12.1023 16.0632 12.2367 16.1977 12.4072 16.3114C12.5776 16.4212 12.7746 16.5178 12.9981 16.6011C13.2216 16.6807 13.4602 16.7489 13.714 16.8057L14.7595 17.0557C15.267 17.1693 15.7329 17.3208 16.1572 17.5102C16.5814 17.6996 16.9489 17.9326 17.2595 18.2091C17.5701 18.4856 17.8106 18.8114 17.9811 19.1864C18.1553 19.5614 18.2443 19.9913 18.2481 20.4761C18.2443 21.1882 18.0625 21.8057 17.7026 22.3284C17.3466 22.8473 16.8314 23.2507 16.1572 23.5386C15.4867 23.8227 14.678 23.9648 13.7311 23.9648C12.7917 23.9648 11.9735 23.8208 11.2765 23.5329C10.5833 23.2451 10.0417 22.8189 9.65151 22.2545C9.26514 21.6864 9.06249 20.9837 9.04355 20.1466H11.4242C11.4507 20.5367 11.5625 20.8625 11.7595 21.1239C11.9602 21.3814 12.2273 21.5765 12.5606 21.7091C12.8977 21.8379 13.2784 21.9023 13.7026 21.9023C14.1193 21.9023 14.4811 21.8417 14.7879 21.7204C15.0985 21.5992 15.339 21.4307 15.5095 21.2148C15.6799 20.9989 15.7651 20.7507 15.7651 20.4704C15.7651 20.2091 15.6875 19.9894 15.5322 19.8114C15.3807 19.6333 15.1572 19.4818 14.8617 19.3568C14.5701 19.2318 14.2121 19.1182 13.7879 19.0159L12.5208 18.6977C11.5398 18.4591 10.7651 18.086 10.197 17.5784C9.62878 17.0708 9.34658 16.3871 9.35037 15.5273C9.34658 14.8227 9.53408 14.2072 9.91287 13.6807C10.2954 13.1542 10.8201 12.7432 11.4867 12.4477C12.1534 12.1523 12.911 12.0045 13.7595 12.0045C14.6231 12.0045 15.3769 12.1523 16.0208 12.4477C16.6686 12.7432 17.1723 13.1542 17.5322 13.6807C17.892 14.2072 18.0776 14.817 18.089 15.5102H15.7311ZM21.7797 14.192V12.1636H31.3366V14.192H27.7741V23.8H25.3422V14.192H21.7797ZM35.2304 23.8V12.1636H43.0713V14.192H37.6907V16.9648H42.6679V18.9932H37.6907V21.7716H43.0941V23.8H35.2304ZM47.3473 12.1636H50.3814L53.5859 19.9818H53.7223L56.9268 12.1636H59.9609V23.8H57.5746V16.2261H57.478L54.4666 23.7432H52.8416L49.8303 16.1977H49.7337V23.8H47.3473V12.1636ZM64.3079 23.8V12.1636H68.8988C69.7776 12.1636 70.5276 12.3208 71.1488 12.6352C71.7738 12.9458 72.2492 13.3871 72.575 13.9591C72.9045 14.5273 73.0693 15.1958 73.0693 15.9648C73.0693 16.7375 72.9026 17.4023 72.5693 17.9591C72.236 18.5121 71.753 18.9364 71.1204 19.2318C70.4916 19.5273 69.7303 19.675 68.8363 19.675H65.7625V17.6977H68.4386C68.9083 17.6977 69.2985 17.6333 69.6091 17.5045C69.9197 17.3757 70.1507 17.1826 70.3022 16.925C70.4575 16.6674 70.5352 16.3473 70.5352 15.9648C70.5352 15.5784 70.4575 15.2526 70.3022 14.9875C70.1507 14.7223 69.9178 14.5216 69.6034 14.3852C69.2928 14.2451 68.9007 14.175 68.4272 14.175H66.7682V23.8H64.3079ZM70.592 18.5045L73.4841 23.8H70.7682L67.9386 18.5045H70.592ZM77.1279 23.8V12.1636H84.9688V14.192H79.5882V16.9648H84.5654V18.9932H79.5882V21.7716H84.9916V23.8H77.1279ZM89.2448 23.8V12.1636H96.9493V14.192H91.705V16.9648H96.438V18.9932H91.705V23.8H89.2448Z" fill="white"/>
    <path fill-rule="evenodd" clip-rule="evenodd" d="M115.642 3.69273C116.475 2.8603 117.797 2.81649 118.681 3.5613L118.824 3.69273L119.62 4.48823C120.452 5.32067 120.496 6.64309 119.751 7.5271L119.62 7.67022L118.824 8.4657C118.755 8.53528 118.682 8.59935 118.606 8.65791C118.799 9.35571 118.65 10.1286 118.159 10.7108L118.029 10.8522L116.915 11.9665C118.422 13.3048 119.375 15.2598 119.375 17.4375C119.375 19.2867 118.689 20.9756 117.557 22.2633L117.339 22.5H120.5C121.121 22.5 121.625 23.0036 121.625 23.625C121.625 24.2019 121.191 24.6774 120.631 24.7424L120.5 24.75H102.5C101.879 24.75 101.375 24.2463 101.375 23.625C101.375 23.048 101.809 22.5725 102.369 22.5076L102.5 22.5H112.062C114.858 22.5 117.125 20.2335 117.125 17.4375C117.125 15.98 116.51 14.6661 115.522 13.7412L115.319 13.5615L111.665 17.2162C110.832 18.0486 109.51 18.0924 108.626 17.3476L108.483 17.2162L106.096 14.8296C105.264 13.9972 105.22 12.6749 105.965 11.7908L106.096 11.6477L112.46 5.28372C113.055 4.68943 113.899 4.49709 114.655 4.7067L114.747 4.5951L114.847 4.48823L115.642 3.69273ZM105.301 15.6251L107.687 18.0117C108.127 18.451 108.127 19.1634 107.687 19.6027C107.248 20.042 106.536 20.042 106.096 19.6027L103.71 17.2162C103.271 16.7768 103.271 16.0645 103.71 15.6251C104.149 15.1858 104.862 15.1858 105.301 15.6251ZM114.051 6.87472L107.687 13.2387L110.074 15.6251L116.438 9.2612L114.051 6.87472ZM117.233 5.28373L116.438 6.07922L117.233 6.87472L118.029 6.07922L117.233 5.28373Z" fill="white"/>
    <g filter="url(#filter0_d_8_86)">
    <rect x="4" y="22.8" width="117.5" height="2" rx="1" fill="white"/>
    </g>
    <defs>
    <filter id="filter0_d_8_86" x="0" y="22.8" width="125.5" height="10" filterUnits="userSpaceOnUse" color-interpolation-filters="sRGB">
    <feFlood flood-opacity="0" result="BackgroundImageFix"/>
    <feColorMatrix in="SourceAlpha" type="matrix" values="0 0 0 0 0 0 0 0 0 0 0 0 0 0 0 0 0 0 127 0" result="hardAlpha"/>
    <feOffset dy="4"/>
    <feGaussianBlur stdDeviation="2"/>
    <feComposite in2="hardAlpha" operator="out"/>
    <feColorMatrix type="matrix" values="0 0 0 0 0 0 0 0 0 0 0 0 0 0 0 0 0 0 0.25 0"/>
    <feBlend mode="normal" in2="BackgroundImageFix" result="effect1_dropShadow_8_86"/>
    <feBlend mode="normal" in="SourceGraphic" in2="effect1_dropShadow_8_86" result="shape"/>
    </filter>
    </defs>
    </svg>
    