<svg width="285" height="142" viewBox="0 0 285 142" fill="none" xmlns="http://www.w3.org/2000/svg">
<path d="M160 57.1784C85.2 3.45732 22.1667 34.7946 0 57.1784V123H285V0C274.5 41.4433 234.8 110.899 160 57.1784Z" fill="#394DFF"/>
<path d="M160.437 85.8958C85.8986 40.1058 23.0856 66.8166 0.99646 85.8958V142H285V37.1589C274.537 72.4837 234.975 131.686 160.437 85.8958Z" fill="#5A6BFF"/>
<path d="M159.439 104.366C84.9011 73.957 22.0889 91.6954 0 104.366V141.624H284V72C273.537 95.4588 233.976 134.774 159.439 104.366Z" fill="#7B88FF"/>
<path d="M159.439 114.436C84.901 91.9384 22.0889 105.062 0 114.436V142H284V90.4906C273.537 107.846 233.976 136.933 159.439 114.436Z" fill="#BDC4FF"/>
</svg>
